<?xml version="1.0" ?><svg viewBox="0 0 30 30" xmlns="http://www.w3.org/2000/svg"><title/><g data-name="Layer 2" id="Layer_2"><g id="Interface-Solid"><g id="interface-solid-multimedia-next-track-button"><path d="M15,2.5A12.5,12.5,0,1,0,27.5,15,12.51408,12.51408,0,0,0,15,2.5ZM12.3999,18.40039a.97271.97271,0,0,1-.17773.53638l-.00189.00293a.976.976,0,0,1-.24543.25708c-.01092.0083-.01623.021-.02758.02881L10.00439,20.582a2.00075,2.00075,0,0,1-3.145-1.64062V11.05859a2.00075,2.00075,0,0,1,3.145-1.64062l1.94288,1.35644c.01135.00782.0166.02051.02752.02881a.97274.97274,0,0,1,.24555.25733l.00177.00244a.973.973,0,0,1,.17779.53662Zm9.88574-1.76074-.00048.001L16.63867,20.582a2.0003,2.0003,0,0,1-3.14453-1.64062V11.05859A2.0003,2.0003,0,0,1,16.63867,9.418l5.64649,3.94141a2.00033,2.00033,0,0,1,.00048,3.28027Z" fill="none"/><path d="M15,0A15,15,0,1,0,30,15,15.01672,15.01672,0,0,0,15,0Zm0,27.5A12.5,12.5,0,1,1,27.5,15,12.51408,12.51408,0,0,1,15,27.5Z"/><path d="M22.28516,13.35938,16.63867,9.418a2.0003,2.0003,0,0,0-3.14453,1.64062v7.88282A1.99947,1.99947,0,0,0,16.63867,20.582l5.64649-3.94141.00048-.001a2.00033,2.00033,0,0,0-.00048-3.28027Z"/><path d="M12.22034,11.06055a.97274.97274,0,0,0-.24555-.25733c-.01092-.0083-.01617-.021-.02752-.02881L10.00439,9.418a2.00075,2.00075,0,0,0-3.145,1.64062v7.88282a1.99983,1.99983,0,0,0,3.145,1.64062l1.94288-1.35644c.01135-.00782.01666-.02051.02758-.02881a.976.976,0,0,0,.24543-.25708l.00189-.00293a.97271.97271,0,0,0,.17773-.53638V11.59961a.973.973,0,0,0-.17779-.53662Z"/></g></g></g></svg>