<?xml version="1.0" ?><svg viewBox="0 0 30 30" xmlns="http://www.w3.org/2000/svg"><title/><g data-name="Layer 2" id="Layer_2"><g id="Interface-Solid"><g id="interface-solid-multimedia-pause-button"><path d="M18,10a.99974.99974,0,0,0-1,1v8a1,1,0,0,0,2,0V11A.99974.99974,0,0,0,18,10Z" fill="none"/><path d="M12,10a.99974.99974,0,0,0-1,1v8a1,1,0,0,0,2,0V11A.99974.99974,0,0,0,12,10Z" fill="none"/><path d="M15,0A15,15,0,1,0,30,15,15.01672,15.01672,0,0,0,15,0ZM13,19a1,1,0,0,1-2,0V11a1,1,0,0,1,2,0Zm6,0a1,1,0,0,1-2,0V11a1,1,0,0,1,2,0Z"/></g></g></g></svg>