<?xml version="1.0" ?><svg viewBox="0 0 30 30" xmlns="http://www.w3.org/2000/svg"><title/><g data-name="Layer 2" id="Layer_2"><g id="Interface-Solid"><g id="interface-solid-multimedia-next-track-button-1"><path d="M7.8595,11.05859v7.88282a1,1,0,0,0,1.57238.82006l1.94312-1.3562V11.59473l-1.94312-1.3562A1,1,0,0,0,7.8595,11.05859Z" fill="none"/><path d="M18.00946,11.59473l-1.94311-1.3562a1,1,0,0,0-1.57239.82006v7.88282a1,1,0,0,0,1.57239.82006l1.94311-1.3562,3.70343-2.58545a1,1,0,0,0,0-1.63989Z" fill="none"/><path d="M15,0A15,15,0,1,0,30,15,15.01641,15.01641,0,0,0,15,0ZM11.375,18.40527l-1.94312,1.3562a1,1,0,0,1-1.57238-.82006V11.05859a1,1,0,0,1,1.57238-.82006l1.94312,1.3562Zm10.33789-2.58545-3.70343,2.58545-1.94311,1.3562a1,1,0,0,1-1.57239-.82006V11.05859a1,1,0,0,1,1.57239-.82006l1.94311,1.3562,3.70343,2.5852A1,1,0,0,1,21.71289,15.81982Z"/></g></g></g></svg>