<?xml version="1.0" ?><svg viewBox="0 0 30 29.99936" xmlns="http://www.w3.org/2000/svg"><title/><g data-name="Layer 2" id="Layer_2"><g id="Interface-Solid"><g id="interface-solid-multimedia-refresh-button-3"><path d="M29.98035,2.15171a1.19758,1.19758,0,0,0-.04944-.24463,1.20863,1.20863,0,0,0-.08985-.23438c-.01574-.02978-.017-.06323-.0354-.09228a1.171,1.171,0,0,0-.09118-.09546,1.23677,1.23677,0,0,0-.583-.40845,1.19606,1.19606,0,0,0-.25208-.051A1.15361,1.15361,0,0,0,28.75.99936c-.03455,0-.06354.01685-.09735.01953a1.51168,1.51168,0,0,0-.47968.13965c-.02978.01563-.063.01685-.09192.03516l-1.5.95019A1.23783,1.23783,0,0,0,27.5,4.41489v7.33447a1.25,1.25,0,0,0,2.5,0v-9.5C30,2.21469,29.98309,2.18564,29.98035,2.15171Z"/><path d="M28.75,17.77671a1.24991,1.24991,0,0,0-1.25,1.25,2.73109,2.73109,0,0,1-2.67578,2.77734H9.122l3.48254-3.57227a1.25,1.25,0,0,0-1.78906-1.74609L5.2627,22.181a1.25046,1.25046,0,0,0,0,1.7461l5.55273,5.69531a1.25,1.25,0,1,0,1.78906-1.7461L9.122,24.30405H24.8418c.00653,0,.0119-.00366.01837-.00366A5.23207,5.23207,0,0,0,30,19.02671,1.24991,1.24991,0,0,0,28.75,17.77671Z"/><path d="M20.87805,8.19467l-3.48254,3.57227A1.25,1.25,0,1,0,19.18457,13.513L24.7373,7.81772a1.25045,1.25045,0,0,0,0-1.74609L19.18457.37631a1.25,1.25,0,1,0-1.78906,1.7461l3.48254,3.57226H5.1582c-.00653,0-.0119.00367-.01837.00367A5.23207,5.23207,0,0,0,0,10.972a1.25,1.25,0,0,0,2.5,0A2.7311,2.7311,0,0,1,5.17578,8.19467Z"/></g></g></g></svg>